# xmcd
# 
# Track frame offsets:
#     187
#     52260
#     82287
#     105865
#     162142
# 
# Disc length: 2527
# 
# Revision: 0
# Processed by: cddbd v1.5.2PL0 Copyright (c) Steve Scherf et al.
# Submitted via: BonkEnc v1.0.8
# 
DISCID=3909dd05
DTITLE=Richie Beirach - Elm
DYEAR=1979
DGENRE=Contemporary Jazz
TTITLE0=Sea Priesters
TTITLE1=Pendulum
TTITLE2=Ki
TTITLE3=Snow Leopard
TTITLE4=Elm
EXTD=YEAR: 1979
EXTT0=
EXTT1=
EXTT2=
EXTT3=
EXTT4=
PLAYORDER=
